<?xml version="1.0" encoding="UTF-8" standalone="no"?>
<svg width="200px" height="200px" viewBox="0 0 200 200" version="1.1" xmlns="http://www.w3.org/2000/svg" xmlns:xlink="http://www.w3.org/1999/xlink" xmlns:sketch="http://www.bohemiancoding.com/sketch/ns">
    <!-- Generator: Sketch 3.1 (8751) - http://www.bohemiancoding.com/sketch -->
    <title>logo 2</title>
    <desc>Created with Sketch.</desc>
    <defs>
        <circle id="path-1" cx="100" cy="100" r="100"></circle>
        <path id="path-3" d="M4.78880208,64.7191011 L58.2505919,64.7191011 L63.469697,0 L-0.43030303,0 L4.78880208,64.7191011 Z"></path>
    </defs>
    <g id="Page-1" stroke="none" stroke-width="1" fill="none" fill-rule="evenodd" sketch:type="MSPage">
        <g id="Rectangle-3-+-Rectangle-4-+-Group-+-Group-2-+-Group-+-Group-+-Group-2-+-Path-6-+-Path-7-+-Path-8" sketch:type="MSLayerGroup">
            <g id="Rectangle-3-+-Rectangle-4-+-Group-+-Group-2-+-Group">
                <mask id="mask-2" sketch:name="Mask" fill="white">
                    <use xlink:href="#path-1"></use>
                </mask>
                <use id="Mask" sketch:type="MSShapeGroup" xlink:href="#path-1"></use>
                <g mask="url(#mask-2)" id="Rectangle-3-+-Rectangle-4">
                    <g transform="translate(-50.000000, -74.000000)">
                        <g>
                            <rect id="Rectangle-3" fill="#75C167" sketch:type="MSShapeGroup" x="0" y="142" width="299" height="142"></rect>
                            <rect id="Rectangle-4" fill="#E4FBFF" sketch:type="MSShapeGroup" x="0" y="0" width="299" height="142"></rect>
                        </g>
                    </g>
                </g>
            </g>
        </g>
        <g id="Path-14-+-Path-15-+-Path-16" sketch:type="MSLayerGroup" transform="translate(31.000000, 2.000000)">
            <g id="Rectangle-3-+-Rectangle-4-+-Path-14-+-Path-15" transform="translate(34.000000, 0.000000)">
                <g id="Rectangle-3-+-Rectangle-4">
                    <path d="M9.09183239,81.9775281 L62.5536222,81.9775281 L67.7727273,17.258427 L3.87272727,17.258427 L9.09183239,81.9775281 Z" id="Rectangle-3" fill="#6B4C3E" sketch:type="MSShapeGroup"></path>
                    <g id="Rectangle-3" transform="translate(4.303030, 17.258427)">
                        <mask id="mask-4" sketch:name="Mask" fill="white">
                            <use xlink:href="#path-3"></use>
                        </mask>
                        <use id="Mask" sketch:type="MSShapeGroup" xlink:href="#path-3"></use>
                        <rect fill="#8F7266" sketch:type="MSShapeGroup" mask="url(#mask-4)" x="4.3030303" y="-19.4157303" width="7.53030303" height="102.47191">
                            <g transform="translate(8.068182, 31.820225) rotate(-5.000000) translate(-8.068182, -31.820225) "></g>
                        </rect>
                    </g>
                    <g id="Path-9" transform="translate(29.183357, 12.397185) scale(-1, 1) rotate(-285.000000) translate(-29.183357, -12.397185) translate(21.849241, 1.541507)" fill="#557E57" sketch:type="MSShapeGroup">
                        <path d="M3.03446325,0.847853589 C2.68590838,4.45927698 1.63162067,7.60471025 3.03446327,11.2161336 C5.93046405,18.4389804 11.748335,20.4194384 11.748335,20.4194384 C11.748335,20.4194384 13.1425545,12.6186547 11.7483348,8.65773869 C10.2379305,4.69682272 6.05527211,3.06130663 3.03446325,0.847853589 Z" id="Path-1" transform="translate(7.347025, 10.633646) rotate(-195.000000) translate(-7.347025, -10.633646) "></path>
                    </g>
                    <g id="Path-10" transform="translate(41.934010, 12.262121) scale(-1, 1) rotate(-21.000000) translate(-41.934010, -12.262121) translate(34.403707, 1.475604)" fill="#71A474" sketch:type="MSShapeGroup">
                        <path d="M3.03446325,0.847853589 C2.68590838,4.45927698 1.63162067,7.60471025 3.03446327,11.2161336 C5.93046405,18.4389804 11.748335,20.4194384 11.748335,20.4194384 C11.748335,20.4194384 13.1425545,12.6186547 11.7483348,8.65773869 C10.2379305,4.69682272 6.05527211,3.06130663 3.03446325,0.847853589 Z" id="Path-1" transform="translate(7.347025, 10.633646) rotate(-195.000000) translate(-7.347025, -10.633646) "></path>
                    </g>
                    <path d="M67.9010847,28.371808 L70.7096386,17.258427 L0.290361418,17.258427 L3.09891529,28.371808 L67.9010847,28.371808 Z" id="Rectangle-4" fill="#44342D" sketch:type="MSShapeGroup"></path>
                </g>
                <g id="Path-14-+-Path-15" transform="translate(0.000000, 66.876404)" fill="#252525" sketch:type="MSShapeGroup">
                    <path d="M35.583947,4.81243375 C35.583947,4.81243375 35.5435678,-0.14381493 25.5188129,-0.133082468 C15.4940579,-0.122350006 15.5142477,10.3267706 8.98551207,10.3267706 C2.45677644,10.3267706 5.37685584,-0.122350011 5.37685584,-0.122350011 C5.37685584,-0.122350011 -0.0637571988,1.26321083 -0.0637571839,11.7123304 C-0.063757169,22.16145 6.11856442,29.0216357 18.1622965,29.0216372 C30.2060285,29.0216386 35.583947,19.1306047 35.583947,19.1306047 L35.583947,4.81243375 Z" id="Path-14"></path>
                    <path d="M71.0116888,4.94553362 C71.0116888,4.94553362 70.9713097,-0.0107150568 60.9465547,1.74052528e-05 C50.9217998,0.0107498673 50.9419896,10.4598705 44.4132539,10.4598705 C37.8845183,10.4598705 40.8045977,0.0107498623 40.8045977,0.0107498623 C40.8045977,0.0107498623 35.3639847,1.39631071 35.3639847,11.8454303 C35.3639847,22.2945498 41.5463063,29.1547356 53.5900383,29.154737 C65.6337704,29.1547385 71.0116888,19.2637046 71.0116888,19.2637046 L71.0116888,4.94553362 Z" id="Path-15" transform="translate(53.187837, 14.577369) scale(-1, 1) translate(-53.187837, -14.577369) "></path>
                </g>
            </g>
            <g id="Group-+-Group-2-+-Path-6-+-Path-7-+-Path-8" transform="translate(69.638889, 143.500000) rotate(-180.000000) translate(-69.638889, -143.500000) translate(-0.500000, 93.000000)" fill="#5A8B5C" sketch:type="MSShapeGroup">
                <g id="Group" transform="translate(0.000000, 16.833333)">
                    <g id="Path-1" transform="translate(13.740741, 67.805556) rotate(-15.000000) translate(-13.740741, -67.805556) translate(3.740741, 53.305556)">
                        <path d="M4.06275883,1.13212195 C3.59608836,5.95438341 2.18453174,10.1544176 4.06275886,14.976679 C7.94013413,24.621202 15.7295204,27.2656679 15.7295204,27.2656679 C15.7295204,27.2656679 17.5962023,16.8494373 15.7295202,11.5605054 C13.7072817,6.27157349 8.10723618,4.08770155 4.06275883,1.13212195 Z" transform="translate(9.836728, 14.198895) rotate(-195.000000) translate(-9.836728, -14.198895) "></path>
                    </g>
                    <g id="Path-2" transform="translate(14.027778, 24.314815)">
                        <path d="M4.06275883,1.13212195 C3.59608836,5.95438341 2.18453174,10.1544176 4.06275886,14.976679 C7.94013413,24.621202 15.7295204,27.2656679 15.7295204,27.2656679 C15.7295204,27.2656679 17.5962023,16.8494373 15.7295202,11.5605054 C13.7072817,6.27157349 8.10723618,4.08770155 4.06275883,1.13212195 Z" id="Path-1" transform="translate(9.836728, 14.198895) rotate(-195.000000) translate(-9.836728, -14.198895) "></path>
                    </g>
                    <g id="Path-3" transform="translate(24.314815, 53.305556)">
                        <path d="M4.06275883,1.13212195 C3.59608836,5.95438341 2.18453174,10.1544176 4.06275886,14.976679 C7.94013413,24.621202 15.7295204,27.2656679 15.7295204,27.2656679 C15.7295204,27.2656679 17.5962023,16.8494373 15.7295202,11.5605054 C13.7072817,6.27157349 8.10723618,4.08770155 4.06275883,1.13212195 Z" id="Path-1" transform="translate(9.836728, 14.198895) rotate(-195.000000) translate(-9.836728, -14.198895) "></path>
                    </g>
                    <g id="Path-4" transform="translate(44.601852, 38.814815) rotate(-345.000000) translate(-44.601852, -38.814815) translate(34.601852, 24.314815)">
                        <path d="M4.06275883,1.13212195 C3.59608836,5.95438341 2.18453174,10.1544176 4.06275886,14.976679 C7.94013413,24.621202 15.7295204,27.2656679 15.7295204,27.2656679 C15.7295204,27.2656679 17.5962023,16.8494373 15.7295202,11.5605054 C13.7072817,6.27157349 8.10723618,4.08770155 4.06275883,1.13212195 Z" id="Path-1" transform="translate(9.836728, 14.198895) rotate(-195.000000) translate(-9.836728, -14.198895) "></path>
                    </g>
                    <g id="Path-5" transform="translate(56.759259, 16.370370) rotate(-345.000000) translate(-56.759259, -16.370370) translate(46.759259, 1.870370)">
                        <path d="M4.06275883,1.13212195 C3.59608836,5.95438341 2.18453174,10.1544176 4.06275886,14.976679 C7.94013413,24.621202 15.7295204,27.2656679 15.7295204,27.2656679 C15.7295204,27.2656679 17.5962023,16.8494373 15.7295202,11.5605054 C13.7072817,6.27157349 8.10723618,4.08770155 4.06275883,1.13212195 Z" id="Path-1" transform="translate(9.836728, 14.198895) rotate(-195.000000) translate(-9.836728, -14.198895) "></path>
                    </g>
                </g>
                <g id="Group-2" transform="translate(105.208333, 58.916667) scale(-1, 1) translate(-105.208333, -58.916667) translate(70.138889, 16.833333)">
                    <g id="Path-1" transform="translate(13.560185, 67.800926) rotate(-15.000000) translate(-13.560185, -67.800926) translate(3.740741, 53.305556)">
                        <path d="M4.06275883,1.13212195 C3.59608836,5.95438341 2.18453174,10.1544176 4.06275886,14.976679 C7.94013413,24.621202 15.7295204,27.2656679 15.7295204,27.2656679 C15.7295204,27.2656679 17.5962023,16.8494373 15.7295202,11.5605054 C13.7072817,6.27157349 8.10723618,4.08770155 4.06275883,1.13212195 Z" transform="translate(9.836728, 14.198895) rotate(-195.000000) translate(-9.836728, -14.198895) "></path>
                    </g>
                    <g id="Path-2" transform="translate(14.027778, 24.314815)">
                        <path d="M4.06275883,1.13212195 C3.59608836,5.95438341 2.18453174,10.1544176 4.06275886,14.976679 C7.94013413,24.621202 15.7295204,27.2656679 15.7295204,27.2656679 C15.7295204,27.2656679 17.5962023,16.8494373 15.7295202,11.5605054 C13.7072817,6.27157349 8.10723618,4.08770155 4.06275883,1.13212195 Z" id="Path-1" transform="translate(9.836728, 14.198895) rotate(-195.000000) translate(-9.836728, -14.198895) "></path>
                    </g>
                    <g id="Path-3" transform="translate(24.314815, 53.305556)">
                        <path d="M4.06275883,1.13212195 C3.59608836,5.95438341 2.18453174,10.1544176 4.06275886,14.976679 C7.94013413,24.621202 15.7295204,27.2656679 15.7295204,27.2656679 C15.7295204,27.2656679 17.5962023,16.8494373 15.7295202,11.5605054 C13.7072817,6.27157349 8.10723618,4.08770155 4.06275883,1.13212195 Z" id="Path-1" transform="translate(9.836728, 14.198895) rotate(-195.000000) translate(-9.836728, -14.198895) "></path>
                    </g>
                    <g id="Path-4" transform="translate(44.601852, 38.814815) rotate(-345.000000) translate(-44.601852, -38.814815) translate(34.601852, 24.314815)">
                        <path d="M4.06275883,1.13212195 C3.59608836,5.95438341 2.18453174,10.1544176 4.06275886,14.976679 C7.94013413,24.621202 15.7295204,27.2656679 15.7295204,27.2656679 C15.7295204,27.2656679 17.5962023,16.8494373 15.7295202,11.5605054 C13.7072817,6.27157349 8.10723618,4.08770155 4.06275883,1.13212195 Z" id="Path-1" transform="translate(9.836728, 14.198895) rotate(-195.000000) translate(-9.836728, -14.198895) "></path>
                    </g>
                    <g id="Path-5" transform="translate(56.759259, 16.370370) rotate(-345.000000) translate(-56.759259, -16.370370) translate(46.759259, 1.870370)">
                        <path d="M4.06275883,1.13212195 C3.59608836,5.95438341 2.18453174,10.1544176 4.06275886,14.976679 C7.94013413,24.621202 15.7295204,27.2656679 15.7295204,27.2656679 C15.7295204,27.2656679 17.5962023,16.8494373 15.7295202,11.5605054 C13.7072817,6.27157349 8.10723618,4.08770155 4.06275883,1.13212195 Z" id="Path-1" transform="translate(9.836728, 14.198895) rotate(-195.000000) translate(-9.836728, -14.198895) "></path>
                    </g>
                </g>
                <g id="Path-6-+-Path-7-+-Path-8" transform="translate(46.759259, -0.000000)">
                    <g id="Path-6" transform="translate(22.087999, 17.305556) rotate(-330.000000) translate(-22.087999, -17.305556) translate(12.087999, 2.805556)">
                        <path d="M4.06275883,1.13212195 C3.59608836,5.95438341 2.18453174,10.1544176 4.06275886,14.976679 C7.94013413,24.621202 15.7295204,27.2656679 15.7295204,27.2656679 C15.7295204,27.2656679 17.5962023,16.8494373 15.7295202,11.5605054 C13.7072817,6.27157349 8.10723618,4.08770155 4.06275883,1.13212195 Z" id="Path-1" transform="translate(9.836728, 14.198895) rotate(-195.000000) translate(-9.836728, -14.198895) "></path>
                    </g>
                    <g id="Path-7" transform="translate(15.541703, 64.959816) rotate(-334.000000) translate(-15.541703, -64.959816) translate(5.541703, 50.459816)">
                        <path d="M4.06275883,1.13212195 C3.59608836,5.95438341 2.18453174,10.1544176 4.06275886,14.976679 C7.94013413,24.621202 15.7295204,27.2656679 15.7295204,27.2656679 C15.7295204,27.2656679 17.5962023,16.8494373 15.7295202,11.5605054 C13.7072817,6.27157349 8.10723618,4.08770155 4.06275883,1.13212195 Z" id="Path-1" transform="translate(9.836728, 14.198895) rotate(-195.000000) translate(-9.836728, -14.198895) "></path>
                    </g>
                    <g id="Path-8" transform="translate(32.375036, 64.959816) scale(-1, 1) rotate(-334.000000) translate(-32.375036, -64.959816) translate(22.375036, 50.459816)">
                        <path d="M4.06275883,1.13212195 C3.59608836,5.95438341 2.18453174,10.1544176 4.06275886,14.976679 C7.94013413,24.621202 15.7295204,27.2656679 15.7295204,27.2656679 C15.7295204,27.2656679 17.5962023,16.8494373 15.7295202,11.5605054 C13.7072817,6.27157349 8.10723618,4.08770155 4.06275883,1.13212195 Z" id="Path-1" transform="translate(9.836728, 14.198895) rotate(-195.000000) translate(-9.836728, -14.198895) "></path>
                    </g>
                </g>
            </g>
        </g>
    </g>
</svg>